# Blender 3.3.1
# www.blender.org
mtllib colchon.mtl
o Colchón.002
v -1.403556 0.492499 -4.377490
v -1.382366 0.492499 -4.399265
v -1.382366 0.469400 -4.377490
v -1.400725 0.492499 -4.388363
v -1.400725 0.480965 -4.377490
v -1.397975 0.481453 -4.387903
v -1.382366 0.480965 -4.396356
v -1.392947 0.492499 -4.396356
v -1.392500 0.481453 -4.393530
v -1.392947 0.472486 -4.377490
v -1.382366 0.472486 -4.388363
v -1.392500 0.475484 -4.387903
v -1.403556 0.492499 -2.534384
v -1.382366 0.469400 -2.534384
v -1.382366 0.492499 -2.512608
v -1.400725 0.480965 -2.534384
v -1.400725 0.492499 -2.523510
v -1.397975 0.481453 -2.523970
v -1.382366 0.472486 -2.523510
v -1.392947 0.472486 -2.534384
v -1.392500 0.475484 -2.523970
v -1.392947 0.492499 -2.515517
v -1.382366 0.480965 -2.515517
v -1.392500 0.481453 -2.518343
v -0.340867 0.492499 -2.512608
v -0.340867 0.469400 -2.534384
v -0.319677 0.492499 -2.534384
v -0.340867 0.480965 -2.515517
v -0.330286 0.492499 -2.515517
v -0.330734 0.481453 -2.518343
v -0.330286 0.472486 -2.534384
v -0.340867 0.472486 -2.523510
v -0.330734 0.475484 -2.523970
v -0.322508 0.492499 -2.523510
v -0.322508 0.480965 -2.534384
v -0.325258 0.481453 -2.523970
v -0.319677 0.492499 -4.377490
v -0.340867 0.469400 -4.377490
v -0.340867 0.492499 -4.399265
v -0.322508 0.480965 -4.377490
v -0.322508 0.492499 -4.388363
v -0.325258 0.481453 -4.387903
v -0.340867 0.472486 -4.388363
v -0.330286 0.472486 -4.377490
v -0.330734 0.475484 -4.387903
v -0.330286 0.492499 -4.396356
v -0.340867 0.480965 -4.396356
v -0.330734 0.481453 -4.393530
v -1.403556 0.654640 -4.377490
v -1.382366 0.677739 -4.377490
v -1.382366 0.654640 -4.399265
v -1.400725 0.666175 -4.377490
v -1.400725 0.654640 -4.388363
v -1.397975 0.665686 -4.387903
v -1.382366 0.674653 -4.388363
v -1.392947 0.674653 -4.377490
v -1.392500 0.671656 -4.387903
v -1.392947 0.654640 -4.396356
v -1.382366 0.666175 -4.396356
v -1.392500 0.665686 -4.393530
v -1.403556 0.654640 -2.534384
v -1.382366 0.654640 -2.512608
v -1.382366 0.677739 -2.534384
v -1.400725 0.654640 -2.523510
v -1.400725 0.666175 -2.534384
v -1.397975 0.665686 -2.523970
v -1.382366 0.666175 -2.515517
v -1.392947 0.654640 -2.515517
v -1.392500 0.665686 -2.518343
v -1.392947 0.674653 -2.534384
v -1.382366 0.674653 -2.523510
v -1.392500 0.671656 -2.523970
v -0.340867 0.654640 -2.512608
v -0.319677 0.654640 -2.534384
v -0.340867 0.677739 -2.534384
v -0.330286 0.654640 -2.515517
v -0.340867 0.666175 -2.515517
v -0.330734 0.665686 -2.518343
v -0.322508 0.666175 -2.534384
v -0.322508 0.654640 -2.523510
v -0.325258 0.665686 -2.523970
v -0.340867 0.674653 -2.523510
v -0.330286 0.674653 -2.534384
v -0.330734 0.671656 -2.523970
v -0.319677 0.654640 -4.377490
v -0.340867 0.654640 -4.399265
v -0.340867 0.677739 -4.377490
v -0.322508 0.654640 -4.388363
v -0.322508 0.666175 -4.377490
v -0.325258 0.665686 -4.387903
v -0.340867 0.666175 -4.396356
v -0.330286 0.654640 -4.396356
v -0.330734 0.665686 -4.393530
v -0.330286 0.674653 -4.377490
v -0.340867 0.674653 -4.388363
v -0.330734 0.671656 -4.387903
vn -0.0000 -0.0000 -1.0000
vn -0.0000 -0.0000 1.0000
vn 1.0000 -0.0000 -0.0000
vn -0.0000 1.0000 -0.0000
vn -0.0000 -1.0000 -0.0000
vn -0.8719 0.0009 -0.4897
vn -0.8838 -0.4679 0.0005
vn -1.0000 0.0035 0.0037
vn -0.5101 0.0006 -0.8601
vn -0.7897 -0.4208 -0.4464
vn -0.0000 -0.4779 -0.8784
vn 0.0033 0.0031 -1.0000
vn 0.0005 -0.8529 -0.5221
vn -0.4638 -0.4255 -0.7770
vn -0.5325 -0.8464 -0.0000
vn 0.0034 -1.0000 0.0033
vn -0.4745 -0.7494 -0.4618
vn -0.8838 -0.4679 -0.0000
vn -0.8719 0.0002 0.4897
vn -1.0000 0.0030 -0.0031
vn -0.5325 -0.8464 -0.0005
vn -0.7897 -0.4208 0.4464
vn 0.0005 -0.8529 0.5221
vn 0.0034 -1.0000 -0.0033
vn -0.4638 -0.4255 0.7770
vn -0.4745 -0.7494 0.4618
vn -0.5101 0.0006 0.8601
vn -0.0000 -0.4779 0.8784
vn 0.0032 0.0030 1.0000
vn 0.5101 0.0006 0.8601
vn -0.0033 0.0031 1.0000
vn -0.0005 -0.8529 0.5221
vn 0.4638 -0.4255 0.7770
vn 0.5325 -0.8464 -0.0005
vn -0.0034 -1.0000 -0.0033
vn 0.7897 -0.4208 0.4464
vn 0.4745 -0.7494 0.4618
vn 0.8719 0.0009 0.4897
vn 0.8838 -0.4679 -0.0000
vn 1.0000 0.0035 -0.0037
vn 0.8719 0.0002 -0.4897
vn 1.0000 0.0030 0.0031
vn 0.5325 -0.8464 0.0005
vn 0.7897 -0.4208 -0.4464
vn -0.0005 -0.8529 -0.5221
vn -0.0034 -1.0000 0.0033
vn 0.4638 -0.4255 -0.7770
vn 0.4745 -0.7494 -0.4618
vn 0.5101 0.0006 -0.8601
vn -0.0032 0.0030 -1.0000
vn -0.8838 0.4679 -0.0000
vn -0.8719 0.0003 -0.4897
vn -1.0000 -0.0020 0.0022
vn -0.5325 0.8464 0.0005
vn -0.7897 0.4208 -0.4464
vn 0.0005 0.8529 -0.5221
vn 0.0034 1.0000 0.0033
vn -0.4638 0.4255 -0.7770
vn -0.4745 0.7494 -0.4618
vn -0.5101 -0.0006 -0.8601
vn -0.0000 0.4779 -0.8784
vn 0.0032 -0.0030 -1.0000
vn -0.8719 -0.0002 0.4897
vn -0.8838 0.4679 -0.0005
vn -1.0000 -0.0029 -0.0030
vn -0.5101 -0.0006 0.8601
vn -0.7897 0.4208 0.4464
vn 0.0005 0.4779 0.8784
vn 0.0033 -0.0031 1.0000
vn -0.4745 0.7494 0.4618
vn -0.4638 0.4255 0.7770
vn -0.5325 0.8464 -0.0000
vn -0.0000 0.8529 0.5221
vn 0.0034 1.0000 -0.0033
vn 0.5101 -0.0006 0.8601
vn -0.0000 0.4779 0.8784
vn -0.0032 -0.0030 1.0000
vn 0.7897 0.4208 0.4464
vn 0.4638 0.4255 0.7770
vn 0.8838 0.4679 -0.0000
vn 0.8719 0.0003 0.4897
vn 1.0000 -0.0020 -0.0022
vn 0.5325 0.8464 -0.0005
vn -0.0005 0.8529 0.5221
vn -0.0034 1.0000 -0.0033
vn 0.4745 0.7494 0.4618
vn 0.8719 -0.0002 -0.4897
vn 0.8838 0.4679 0.0005
vn 1.0000 -0.0029 0.0030
vn 0.5101 -0.0006 -0.8601
vn 0.7897 0.4208 -0.4464
vn -0.0005 0.4779 -0.8784
vn -0.0033 -0.0031 -1.0000
vn 0.4745 0.7494 -0.4618
vn 0.4638 0.4255 -0.7770
vn 0.5325 0.8464 -0.0000
vn -0.0000 0.8529 -0.5221
vn -0.0034 1.0000 0.0033
vn -1.0000 -0.0000 -0.0000
vt 3.035269 -1.930682
vt 3.453618 2.721507
vt -0.081140 -1.930682
vt 3.453618 2.767889
vt 3.035269 -1.977064
vt 3.081651 -1.930682
vt -0.127522 -1.930682
vt 3.081651 -1.952862
vt 3.500000 2.767889
vt -0.127522 -1.952863
vt -0.081140 -1.977064
vt 3.500000 2.721507
vt 3.453618 2.744668
vt 3.500000 2.743688
vt -0.103321 -1.977064
vt -0.104301 -1.930682
vt -0.081140 -1.953843
vt -0.103321 -1.952862
vt 3.035269 1.995141
vt -0.081141 1.995141
vt 3.453618 -1.930682
vt -0.127523 1.995141
vt 3.081651 1.995141
vt 3.035269 2.041523
vt 3.453618 -1.977064
vt 3.081651 2.017322
vt -0.127523 2.017322
vt 3.500000 -1.977064
vt -0.081141 2.018301
vt -0.104302 1.995141
vt -0.103321 2.017321
vt 3.453618 -1.953843
vt 3.500000 -1.930682
vt -0.081141 2.041523
vt -0.103321 2.041523
vt 3.500000 -1.952863
vt 3.453618 0.349031
vt 2.198572 1.995141
vt 2.616921 -1.930682
vt 2.198571 2.041523
vt 3.500000 0.349031
vt 3.453618 0.372191
vt 2.220752 2.041523
vt 3.500000 0.371211
vt 2.221732 1.995141
vt 2.198572 2.018301
vt 2.220752 2.017321
vt 3.453618 0.395413
vt 2.616921 -1.977064
vt 2.663303 -1.930682
vt 2.244954 1.995141
vt 2.244954 2.017322
vt 2.663303 -1.952862
vt 3.500000 0.395413
vt 2.616921 1.995141
vt 2.198572 -1.930682
vt 3.453618 0.441795
vt 2.244954 -1.930682
vt 2.663303 1.995141
vt 2.616921 2.041523
vt 3.453618 0.395413
vt 2.663303 2.017322
vt 2.244954 -1.952863
vt 3.500000 0.395413
vt 2.198572 -1.953843
vt 2.221733 -1.930682
vt 2.220752 -1.952862
vt 3.453618 0.418634
vt 3.500000 0.441795
vt 2.198572 -1.977064
vt 2.220752 -1.977064
vt 3.500000 0.419614
vt 2.709685 -1.930682
vt -0.173905 -1.930682
vt 3.128033 2.721507
vt -0.127523 -1.930682
vt 2.663303 -1.930682
vt 2.709685 -1.977064
vt 3.128033 2.767889
vt 2.663303 -1.952863
vt -0.127523 -1.952862
vt 3.081651 2.767889
vt -0.173905 -1.953843
vt -0.150744 -1.930682
vt -0.151724 -1.952862
vt 3.128034 2.744668
vt 3.081651 2.721507
vt -0.173905 -1.977064
vt -0.151724 -1.977064
vt 3.081651 2.743688
vt 2.709685 1.995141
vt 3.128034 -1.930682
vt -0.173905 1.995141
vt 3.128033 -1.977064
vt 2.709685 2.041523
vt 2.663303 1.995141
vt -0.127523 1.995141
vt 2.663303 2.017322
vt 3.081651 -1.977064
vt -0.127523 2.017322
vt -0.173905 2.041523
vt 3.081651 -1.930682
vt 3.128034 -1.953843
vt -0.151725 2.041523
vt 3.081651 -1.952863
vt -0.150745 1.995141
vt -0.173905 2.018301
vt -0.151725 2.017321
vt 3.128033 0.349031
vt 2.291337 -1.930682
vt -2.453618 1.995141
vt 3.128034 0.372191
vt 3.081651 0.349031
vt -2.453618 2.041523
vt 3.081651 0.371211
vt -2.475798 2.041523
vt -2.500000 1.995141
vt 2.244955 -1.930682
vt 2.291337 -1.977064
vt 3.128033 0.395413
vt 3.081651 0.395413
vt 2.244955 -1.952863
vt -2.500000 2.017321
vt -2.453618 2.018301
vt -2.476778 1.995141
vt -2.475798 2.017321
vt 2.291337 1.995141
vt 3.128034 0.441795
vt -2.453617 -1.930682
vt 3.128033 0.395413
vt 2.291337 2.041523
vt 2.244955 1.995141
vt -2.499999 -1.930682
vt 2.244955 2.017322
vt 3.081651 0.395413
vt -2.499999 -1.952863
vt -2.453617 -1.977064
vt 3.081651 0.441795
vt 3.128034 0.418634
vt -2.475797 -1.977064
vt 3.081651 0.419614
vt -2.476778 -1.930682
vt -2.453617 -1.953843
vt -2.475798 -1.952862
s 1
usemtl white_fabric
f 2/2/1 86/128/1 39/57/1
f 25/37/2 62/92/2 15/21/2
f 37/55/3 74/110/3 27/39/3
f 75/111/4 50/74/4 63/93/4
f 3/3/5 26/38/5 14/20/5
f 4/5/6 5/6/7 1/1/8
f 8/13/9 6/9/10 4/4/6
f 7/12/11 8/13/9 2/2/12
f 11/17/13 9/15/14 7/11/11
f 10/16/15 11/17/13 3/3/16
f 5/7/7 12/18/17 10/16/15
f 6/10/10 9/15/14 12/18/17
f 16/23/18 17/24/19 13/19/20
f 20/30/21 18/27/22 16/22/18
f 19/29/23 20/30/21 14/20/24
f 19/29/23 24/35/25 21/31/26
f 22/32/27 23/33/28 15/21/29
f 22/32/27 18/28/22 24/36/25
f 18/27/22 21/31/26 24/35/25
f 28/41/28 29/42/30 25/37/31
f 32/46/32 30/43/33 28/40/28
f 31/45/34 32/46/32 26/38/35
f 31/45/34 36/52/36 33/47/37
f 34/49/38 35/50/39 27/39/40
f 29/42/30 36/54/36 34/48/38
f 30/43/33 33/47/37 36/52/36
f 40/59/39 41/60/41 37/55/42
f 44/66/43 42/63/44 40/58/39
f 43/65/45 44/66/43 38/56/46
f 43/65/45 48/71/47 45/67/48
f 46/68/49 47/69/11 39/57/50
f 46/68/49 42/64/44 48/72/47
f 42/63/44 45/67/48 48/71/47
f 52/77/51 53/78/52 49/73/53
f 56/84/54 54/81/55 52/76/51
f 55/83/56 56/84/54 50/74/57
f 55/83/56 60/89/58 57/85/59
f 58/86/60 59/87/61 51/75/62
f 58/86/60 54/82/55 60/90/58
f 54/81/55 57/85/59 60/89/58
f 64/95/63 65/96/64 61/91/65
f 68/103/66 66/99/67 64/94/63
f 67/102/68 68/103/66 62/92/69
f 67/101/68 72/108/70 69/104/71
f 70/106/72 71/107/73 63/93/74
f 65/97/64 72/108/70 70/106/72
f 66/100/67 69/104/71 72/108/70
f 76/112/75 77/113/76 73/109/77
f 76/112/75 81/121/78 78/115/79
f 79/118/80 80/119/81 74/110/82
f 83/125/83 81/123/78 79/117/80
f 82/124/84 83/125/83 75/111/85
f 82/124/84 78/116/79 84/126/86
f 78/116/79 81/123/78 84/126/86
f 88/131/87 89/132/88 85/127/89
f 92/139/90 90/135/91 88/130/87
f 91/138/92 92/139/90 86/128/93
f 91/137/92 96/144/94 93/140/95
f 94/142/96 95/143/97 87/129/98
f 89/133/88 96/144/94 94/142/96
f 90/136/91 93/140/95 96/144/94
f 14/20/24 10/16/15 3/3/16
f 20/30/21 5/7/7 10/16/15
f 16/23/18 1/1/8 5/6/7
f 26/38/35 19/29/23 14/20/24
f 32/46/32 23/34/28 19/29/23
f 28/41/28 15/21/29 23/33/28
f 38/56/46 31/45/34 26/38/35
f 44/66/43 35/51/39 31/45/34
f 40/59/39 27/39/40 35/50/39
f 3/3/16 43/65/45 38/56/46
f 11/17/13 47/70/11 43/65/45
f 7/12/11 39/57/50 47/69/11
f 61/91/65 52/77/51 49/73/53
f 65/97/64 56/84/54 52/76/51
f 70/106/72 50/74/57 56/84/54
f 73/109/77 67/102/68 62/92/69
f 77/114/76 71/107/73 67/101/68
f 82/124/84 63/93/74 71/107/73
f 85/127/89 79/118/80 74/110/82
f 89/133/88 83/125/83 79/117/80
f 94/142/96 75/111/85 83/125/83
f 51/75/62 91/138/92 86/128/93
f 59/88/61 95/143/97 91/137/92
f 55/83/56 87/129/98 95/143/97
f 1/1/8 53/78/52 4/5/6
f 53/79/52 8/13/9 4/4/6
f 58/86/60 2/2/12 8/13/9
f 37/55/42 88/131/87 85/127/89
f 41/61/41 92/139/90 88/130/87
f 46/68/49 86/128/93 92/139/90
f 27/39/40 80/119/81 34/49/38
f 80/120/81 29/42/30 34/48/38
f 76/112/75 25/37/31 29/42/30
f 13/19/20 64/95/63 61/91/65
f 17/25/19 68/103/66 64/94/63
f 22/32/27 62/92/69 68/103/66
f 13/19/99 49/73/99 1/1/99
f 2/2/1 51/75/1 86/128/1
f 25/37/2 73/109/2 62/92/2
f 37/55/3 85/127/3 74/110/3
f 75/111/4 87/129/4 50/74/4
f 3/3/5 38/56/5 26/38/5
f 4/5/6 6/8/10 5/6/7
f 8/13/9 9/14/14 6/9/10
f 7/12/11 9/14/14 8/13/9
f 11/17/13 12/18/17 9/15/14
f 10/16/15 12/18/17 11/17/13
f 5/7/7 6/10/10 12/18/17
f 16/23/18 18/26/22 17/24/19
f 20/30/21 21/31/26 18/27/22
f 19/29/23 21/31/26 20/30/21
f 19/29/23 23/34/28 24/35/25
f 22/32/27 24/36/25 23/33/28
f 22/32/27 17/25/19 18/28/22
f 28/41/28 30/44/33 29/42/30
f 32/46/32 33/47/37 30/43/33
f 31/45/34 33/47/37 32/46/32
f 31/45/34 35/51/39 36/52/36
f 34/49/38 36/53/36 35/50/39
f 29/42/30 30/44/33 36/54/36
f 40/59/39 42/62/44 41/60/41
f 44/66/43 45/67/48 42/63/44
f 43/65/45 45/67/48 44/66/43
f 43/65/45 47/70/11 48/71/47
f 46/68/49 48/72/47 47/69/11
f 46/68/49 41/61/41 42/64/44
f 52/77/51 54/80/55 53/78/52
f 56/84/54 57/85/59 54/81/55
f 55/83/56 57/85/59 56/84/54
f 55/83/56 59/88/61 60/89/58
f 58/86/60 60/90/58 59/87/61
f 58/86/60 53/79/52 54/82/55
f 64/95/63 66/98/67 65/96/64
f 68/103/66 69/105/71 66/99/67
f 67/102/68 69/105/71 68/103/66
f 67/101/68 71/107/73 72/108/70
f 70/106/72 72/108/70 71/107/73
f 65/97/64 66/100/67 72/108/70
f 76/112/75 78/115/79 77/113/76
f 76/112/75 80/120/81 81/121/78
f 79/118/80 81/122/78 80/119/81
f 83/125/83 84/126/86 81/123/78
f 82/124/84 84/126/86 83/125/83
f 82/124/84 77/114/76 78/116/79
f 88/131/87 90/134/91 89/132/88
f 92/139/90 93/141/95 90/135/91
f 91/138/92 93/141/95 92/139/90
f 91/137/92 95/143/97 96/144/94
f 94/142/96 96/144/94 95/143/97
f 89/133/88 90/136/91 96/144/94
f 14/20/24 20/30/21 10/16/15
f 20/30/21 16/22/18 5/7/7
f 16/23/18 13/19/20 1/1/8
f 26/38/35 32/46/32 19/29/23
f 32/46/32 28/40/28 23/34/28
f 28/41/28 25/37/31 15/21/29
f 38/56/46 44/66/43 31/45/34
f 44/66/43 40/58/39 35/51/39
f 40/59/39 37/55/42 27/39/40
f 3/3/16 11/17/13 43/65/45
f 11/17/13 7/11/11 47/70/11
f 7/12/11 2/2/12 39/57/50
f 61/91/65 65/96/64 52/77/51
f 65/97/64 70/106/72 56/84/54
f 70/106/72 63/93/74 50/74/57
f 73/109/77 77/113/76 67/102/68
f 77/114/76 82/124/84 71/107/73
f 82/124/84 75/111/85 63/93/74
f 85/127/89 89/132/88 79/118/80
f 89/133/88 94/142/96 83/125/83
f 94/142/96 87/129/98 75/111/85
f 51/75/62 59/87/61 91/138/92
f 59/88/61 55/83/56 95/143/97
f 55/83/56 50/74/57 87/129/98
f 1/1/8 49/73/53 53/78/52
f 53/79/52 58/86/60 8/13/9
f 58/86/60 51/75/62 2/2/12
f 37/55/42 41/60/41 88/131/87
f 41/61/41 46/68/49 92/139/90
f 46/68/49 39/57/50 86/128/93
f 27/39/40 74/110/82 80/119/81
f 80/120/81 76/112/75 29/42/30
f 76/112/75 73/109/77 25/37/31
f 13/19/20 17/24/19 64/95/63
f 17/25/19 22/32/27 68/103/66
f 22/32/27 15/21/29 62/92/69
f 13/19/99 61/91/99 49/73/99
