# Blender 3.3.1
# www.blender.org
mtllib mirror.mtl
o espejo
v 3.276318 1.222610 3.034800
v 3.276318 1.977390 3.034800
v 3.253674 1.222610 3.034800
v 3.253674 1.977390 3.034800
v 3.276318 1.222610 2.657410
v 3.276318 1.977390 2.657410
v 3.253674 1.222610 2.657410
v 3.253674 1.977390 2.657410
vn -0.0000 -0.0000 1.0000
vn -1.0000 -0.0000 -0.0000
vn -0.0000 -0.0000 -1.0000
vn 1.0000 -0.0000 -0.0000
vn -0.0000 -1.0000 -0.0000
vn -0.0000 1.0000 -0.0000
vt 2.000000 -1.000000
vt 0.000000 -1.000000
vt 0.000000 1.000000
vt 2.000000 0.000000
vt 0.000000 -0.000000
vt -0.000000 2.000000
vt 0.000000 -1.000000
vt 0.000000 0.000000
vt 1.000000 -1.000000
vt 1.000000 -0.000000
vt -0.000000 0.000000
vt 0.000000 1.000000
vt 1.000000 -1.000000
vt -1.000000 0.000000
vt 1.000000 1.000000
vt -1.000000 1.000000
vt 1.000000 0.000000
vt -1.000000 2.000000
vt 0.000000 0.000000
vt -1.000000 -1.000000
vt 1.000000 0.000000
vt -1.000000 1.000000
vt -1.000000 -0.000000
vt -0.000000 1.000000
s 0
usemtl silver
f 2/4/1 3/9/1 1/1/1
f 4/11/2 7/20/2 3/7/2
f 8/24/3 5/14/3 7/19/3
f 6/17/4 1/2/4 5/13/4
f 7/21/5 1/3/5 3/8/5
f 4/12/6 6/18/6 8/22/6
f 2/4/1 4/10/1 3/9/1
f 4/11/2 8/23/2 7/20/2
f 8/24/3 6/16/3 5/14/3
f 6/17/4 2/5/4 1/2/4
f 7/21/5 5/15/5 1/3/5
f 4/12/6 2/6/6 6/18/6
o Circle.005
v 3.276318 1.969086 2.675767
v 3.276318 1.968486 2.679554
v 3.276318 1.966745 2.682971
v 3.276318 1.964034 2.685683
v 3.276318 1.960617 2.687424
v 3.276318 1.956830 2.688024
v 3.276318 1.953042 2.687424
v 3.276318 1.949625 2.685683
v 3.276318 1.946914 2.682971
v 3.276318 1.945173 2.679554
v 3.276318 1.944573 2.675767
v 3.276318 1.945173 2.671979
v 3.276318 1.946914 2.668563
v 3.276318 1.949625 2.665851
v 3.276318 1.953042 2.664110
v 3.276318 1.956830 2.663510
v 3.276318 1.960617 2.664110
v 3.276318 1.964034 2.665851
v 3.276318 1.966745 2.668563
v 3.276318 1.968486 2.671979
v 3.285860 1.968486 2.679554
v 3.285860 1.969086 2.675767
v 3.285860 1.966745 2.682971
v 3.285860 1.964034 2.685683
v 3.285860 1.960617 2.687424
v 3.285860 1.956830 2.688024
v 3.285860 1.953042 2.687424
v 3.285860 1.949625 2.685683
v 3.285860 1.946914 2.682971
v 3.285860 1.945173 2.679554
v 3.285860 1.944573 2.675767
v 3.285860 1.945173 2.671979
v 3.285860 1.946914 2.668563
v 3.285860 1.949625 2.665851
v 3.285860 1.953042 2.664110
v 3.285860 1.956830 2.663510
v 3.285860 1.960617 2.664110
v 3.285860 1.964034 2.665851
v 3.285860 1.966745 2.668563
v 3.285860 1.968486 2.671979
v 3.276318 1.969086 3.016444
v 3.276318 1.968486 3.012656
v 3.276318 1.966745 3.009239
v 3.276318 1.964034 3.006528
v 3.276318 1.960617 3.004787
v 3.276318 1.956830 3.004187
v 3.276318 1.953042 3.004787
v 3.276318 1.949625 3.006528
v 3.276318 1.946914 3.009239
v 3.276318 1.945173 3.012656
v 3.276318 1.944573 3.016444
v 3.276318 1.945173 3.020231
v 3.276318 1.946914 3.023648
v 3.276318 1.949625 3.026360
v 3.276318 1.953042 3.028100
v 3.276318 1.956830 3.028700
v 3.276318 1.960617 3.028100
v 3.276318 1.964034 3.026360
v 3.276318 1.966745 3.023648
v 3.276318 1.968486 3.020231
v 3.285860 1.968486 3.012656
v 3.285860 1.969086 3.016444
v 3.285860 1.966745 3.009239
v 3.285860 1.964034 3.006528
v 3.285860 1.960617 3.004787
v 3.285860 1.956830 3.004187
v 3.285860 1.953042 3.004787
v 3.285860 1.949625 3.006528
v 3.285860 1.946914 3.009239
v 3.285860 1.945173 3.012656
v 3.285860 1.944573 3.016444
v 3.285860 1.945173 3.020231
v 3.285860 1.946914 3.023648
v 3.285860 1.949625 3.026360
v 3.285860 1.953042 3.028100
v 3.285860 1.956830 3.028700
v 3.285860 1.960617 3.028100
v 3.285860 1.964034 3.026360
v 3.285860 1.966745 3.023648
v 3.285860 1.968486 3.020231
v 3.276318 1.230914 2.675767
v 3.276318 1.231514 2.679554
v 3.276318 1.233255 2.682971
v 3.276318 1.235966 2.685683
v 3.276318 1.239383 2.687424
v 3.276318 1.243170 2.688024
v 3.276318 1.246958 2.687424
v 3.276318 1.250375 2.685683
v 3.276318 1.253086 2.682971
v 3.276318 1.254827 2.679554
v 3.276318 1.255427 2.675767
v 3.276318 1.254827 2.671979
v 3.276318 1.253086 2.668563
v 3.276318 1.250375 2.665851
v 3.276318 1.246958 2.664110
v 3.276318 1.243170 2.663510
v 3.276318 1.239383 2.664110
v 3.276318 1.235966 2.665851
v 3.276318 1.233255 2.668563
v 3.276318 1.231514 2.671979
v 3.285860 1.231514 2.679554
v 3.285860 1.230914 2.675767
v 3.285860 1.233255 2.682971
v 3.285860 1.235966 2.685683
v 3.285860 1.239383 2.687424
v 3.285860 1.243170 2.688024
v 3.285860 1.246958 2.687424
v 3.285860 1.250375 2.685683
v 3.285860 1.253086 2.682971
v 3.285860 1.254827 2.679554
v 3.285860 1.255427 2.675767
v 3.285860 1.254827 2.671979
v 3.285860 1.253086 2.668563
v 3.285860 1.250375 2.665851
v 3.285860 1.246958 2.664110
v 3.285860 1.243170 2.663510
v 3.285860 1.239383 2.664110
v 3.285860 1.235966 2.665851
v 3.285860 1.233255 2.668563
v 3.285860 1.231514 2.671979
v 3.276318 1.230914 3.016444
v 3.276318 1.231514 3.012656
v 3.276318 1.233255 3.009239
v 3.276318 1.235966 3.006528
v 3.276318 1.239383 3.004787
v 3.276318 1.243170 3.004187
v 3.276318 1.246958 3.004787
v 3.276318 1.250375 3.006528
v 3.276318 1.253086 3.009239
v 3.276318 1.254827 3.012656
v 3.276318 1.255427 3.016444
v 3.276318 1.254827 3.020231
v 3.276318 1.253086 3.023648
v 3.276318 1.250375 3.026360
v 3.276318 1.246958 3.028100
v 3.276318 1.243170 3.028700
v 3.276318 1.239383 3.028100
v 3.276318 1.235966 3.026360
v 3.276318 1.233255 3.023648
v 3.276318 1.231514 3.020231
v 3.285860 1.231514 3.012656
v 3.285860 1.230914 3.016444
v 3.285860 1.233255 3.009239
v 3.285860 1.235966 3.006528
v 3.285860 1.239383 3.004787
v 3.285860 1.243170 3.004187
v 3.285860 1.246958 3.004787
v 3.285860 1.250375 3.006528
v 3.285860 1.253086 3.009239
v 3.285860 1.254827 3.012656
v 3.285860 1.255427 3.016444
v 3.285860 1.254827 3.020231
v 3.285860 1.253086 3.023648
v 3.285860 1.250375 3.026360
v 3.285860 1.246958 3.028100
v 3.285860 1.243170 3.028700
v 3.285860 1.239383 3.028100
v 3.285860 1.235966 3.026360
v 3.285860 1.233255 3.023648
v 3.285860 1.231514 3.020231
vn -1.0000 -0.0000 -0.0000
vn 1.0000 -0.0000 -0.0000
vn -0.0000 -0.5878 -0.8090
vn -0.0000 -0.8090 -0.5878
vn -0.0000 -0.3090 0.9511
vn -0.0000 -0.0000 1.0000
vn -0.0000 -0.3090 -0.9511
vn -0.0000 -0.5878 0.8090
vn -0.0000 -0.0000 -1.0000
vn -0.0000 -0.8090 0.5878
vn -0.0000 0.9511 0.3090
vn -0.0000 1.0000 -0.0000
vn -0.0000 0.3090 -0.9511
vn -0.0000 -0.9511 0.3090
vn -0.0000 0.8090 0.5878
vn -0.0000 0.5878 -0.8090
vn -0.0000 -1.0000 -0.0000
vn -0.0000 0.5878 0.8090
vn -0.0000 0.8090 -0.5878
vn -0.0000 -0.9511 -0.3090
vn -0.0000 0.3090 0.9511
vn -0.0000 0.9511 -0.3090
vt 0.000000 0.000000
vt 0.000000 0.000000
vt 0.000000 0.000000
vt 0.000000 0.000000
vt 0.000000 0.000000
vt 0.000000 0.000000
vt 0.000000 0.000000
vt 0.000000 0.000000
vt 0.000000 0.000000
vt 0.000000 0.000000
vt 0.000000 0.000000
vt 0.000000 0.000000
vt 0.000000 0.000000
vt 0.000000 0.000000
vt 0.000000 0.000000
vt 0.000000 0.000000
vt 0.000000 0.000000
vt 0.000000 0.000000
vt 0.000000 0.000000
vt 0.000000 0.000000
vt 0.000000 0.000000
vt 0.000000 0.000000
vt 0.000000 0.000000
vt 0.000000 0.000000
vt 0.000000 0.000000
vt 0.000000 0.000000
vt 0.000000 0.000000
vt 0.000000 0.000000
vt 0.000000 0.000000
vt 0.000000 0.000000
vt 0.000000 0.000000
vt 0.000000 0.000000
vt 0.000000 0.000000
vt 0.000000 0.000000
vt 0.000000 0.000000
vt 0.000000 0.000000
vt 0.000000 0.000000
vt 0.000000 0.000000
vt 0.000000 0.000000
vt 0.000000 0.000000
vt 0.000000 0.000000
vt 0.000000 0.000000
vt 0.000000 0.000000
vt 0.000000 0.000000
vt 0.000000 0.000000
vt 0.000000 0.000000
vt 0.000000 0.000000
vt 0.000000 0.000000
vt 0.000000 0.000000
vt 0.000000 0.000000
vt 0.000000 0.000000
vt 0.000000 0.000000
vt 0.000000 0.000000
vt 0.000000 0.000000
vt 0.000000 0.000000
vt 0.000000 0.000000
vt 0.000000 0.000000
vt 0.000000 0.000000
vt 0.000000 0.000000
vt 0.000000 0.000000
vt 0.000000 0.000000
vt 0.000000 0.000000
vt 0.000000 0.000000
vt 0.000000 0.000000
vt 0.000000 0.000000
vt 0.000000 0.000000
vt 0.000000 0.000000
vt 0.000000 0.000000
vt 0.000000 0.000000
vt 0.000000 0.000000
vt 0.000000 0.000000
vt 0.000000 0.000000
vt 0.000000 0.000000
vt 0.000000 0.000000
vt 0.000000 0.000000
vt 0.000000 0.000000
vt 0.000000 0.000000
vt 0.000000 0.000000
vt 0.000000 0.000000
vt 0.000000 0.000000
vt 0.000000 0.000000
vt 0.000000 0.000000
vt 0.000000 0.000000
vt 0.000000 0.000000
vt 0.000000 0.000000
vt 0.000000 0.000000
vt 0.000000 0.000000
vt 0.000000 0.000000
vt 0.000000 0.000000
vt 0.000000 0.000000
vt 0.000000 0.000000
vt 0.000000 0.000000
vt 0.000000 0.000000
vt 0.000000 0.000000
vt 0.000000 0.000000
vt 0.000000 0.000000
vt 0.000000 0.000000
vt 0.000000 0.000000
vt 0.000000 0.000000
vt 0.000000 0.000000
vt 0.000000 0.000000
vt 0.000000 0.000000
vt 0.000000 0.000000
vt 0.000000 0.000000
vt 0.000000 0.000000
vt 0.000000 0.000000
vt 0.000000 0.000000
vt 0.000000 0.000000
vt 0.000000 0.000000
vt 0.000000 0.000000
vt 0.000000 0.000000
vt 0.000000 0.000000
vt 0.000000 0.000000
vt 0.000000 0.000000
vt 0.000000 0.000000
vt 0.000000 0.000000
vt 0.000000 0.000000
vt 0.000000 0.000000
vt 0.000000 0.000000
vt 0.000000 0.000000
vt 0.000000 0.000000
vt 0.000000 0.000000
vt 0.000000 0.000000
vt 0.000000 0.000000
vt 0.000000 0.000000
vt 0.000000 0.000000
vt 0.000000 0.000000
vt 0.000000 0.000000
vt 0.000000 0.000000
vt 0.000000 0.000000
vt 0.000000 0.000000
vt 0.000000 0.000000
vt 0.000000 0.000000
vt 0.000000 0.000000
vt 0.000000 0.000000
vt 0.000000 0.000000
vt 0.000000 0.000000
vt 0.000000 0.000000
vt 0.000000 0.000000
vt 0.000000 0.000000
vt 0.000000 0.000000
vt 0.000000 0.000000
vt 0.000000 0.000000
vt 0.000000 0.000000
vt 0.000000 0.000000
vt 0.000000 0.000000
vt 0.000000 0.000000
vt 0.000000 0.000000
vt 0.000000 0.000000
vt 0.000000 0.000000
vt 0.000000 0.000000
vt 0.000000 0.000000
vt 0.000000 0.000000
vt 0.000000 0.000000
vt 0.000000 0.000000
vt 0.000000 0.000000
vt 0.000000 0.000000
vt 0.000000 0.000000
vt 0.000000 0.000000
vt 0.000000 0.000000
s 1
usemtl black_metal
f 23/39/7 15/31/7 11/27/7
f 37/53/8 45/61/8 30/46/8
f 22/38/9 41/57/10 21/37/10
f 15/31/11 34/50/12 14/30/12
f 23/39/13 42/58/9 22/38/9
f 16/32/14 35/51/11 15/31/11
f 24/40/15 43/59/13 23/39/13
f 17/33/16 36/52/14 16/32/14
f 10/26/17 30/46/18 9/25/18
f 25/41/19 44/60/15 24/40/15
f 18/34/20 37/53/16 17/33/16
f 11/27/21 29/45/17 10/26/17
f 26/42/22 45/61/19 25/41/19
f 19/35/23 38/54/20 18/34/20
f 12/28/24 31/47/21 11/27/21
f 27/43/25 46/62/22 26/42/22
f 20/36/26 39/55/23 19/35/23
f 13/29/27 32/48/24 12/28/24
f 28/44/28 47/63/25 27/43/25
f 21/37/10 40/56/26 20/36/26
f 14/30/12 33/49/27 13/29/27
f 9/25/18 48/64/28 28/44/28
f 57/73/7 65/81/7 49/65/7
f 83/99/8 75/91/8 71/87/8
f 81/97/16 62/78/14 61/77/16
f 74/90/15 55/71/13 54/70/15
f 82/98/14 63/79/11 62/78/14
f 75/91/13 56/72/9 55/71/13
f 83/99/11 64/80/12 63/79/11
f 76/92/9 57/73/10 56/72/9
f 70/86/18 50/66/28 49/65/18
f 84/100/12 65/81/27 64/80/12
f 77/93/10 58/74/26 57/73/10
f 69/85/28 51/67/25 50/66/28
f 85/101/27 66/82/24 65/81/27
f 78/94/26 59/75/23 58/74/26
f 71/87/25 52/68/22 51/67/25
f 86/102/24 67/83/21 66/82/24
f 79/95/23 60/76/20 59/75/23
f 72/88/22 53/69/19 52/68/22
f 87/103/21 68/84/17 67/83/21
f 80/96/20 61/77/16 60/76/20
f 73/89/19 54/70/15 53/69/19
f 88/104/17 49/65/18 68/84/17
f 97/113/7 105/121/7 89/105/7
f 123/139/8 115/131/8 111/127/8
f 121/137/25 102/118/22 101/117/25
f 94/110/12 115/131/27 95/111/27
f 122/138/22 103/119/19 102/118/22
f 115/131/27 96/112/24 95/111/27
f 123/139/19 104/120/15 103/119/19
f 116/132/24 97/113/21 96/112/24
f 110/126/23 90/106/20 89/105/23
f 124/140/15 105/121/13 104/120/15
f 117/133/21 98/114/17 97/113/21
f 109/125/20 91/107/16 90/106/20
f 125/141/13 106/122/9 105/121/13
f 118/134/17 99/115/18 98/114/17
f 111/127/16 92/108/14 91/107/16
f 126/142/9 107/123/10 106/122/9
f 119/135/18 100/116/28 99/115/18
f 112/128/14 93/109/11 92/108/14
f 127/143/10 108/124/26 107/123/10
f 120/136/28 101/117/25 100/116/28
f 93/109/11 114/130/12 94/110/12
f 128/144/26 89/105/23 108/124/26
f 143/159/7 135/151/7 131/147/7
f 157/173/8 165/181/8 150/166/8
f 142/158/24 161/177/21 141/157/21
f 134/150/15 155/171/19 154/170/15
f 143/159/27 162/178/24 142/158/24
f 136/152/22 155/171/19 135/151/19
f 144/160/12 163/179/27 143/159/27
f 137/153/25 156/172/22 136/152/22
f 130/146/26 150/166/23 129/145/23
f 145/161/11 164/180/12 144/160/12
f 138/154/28 157/173/25 137/153/25
f 131/147/10 149/165/26 130/146/26
f 146/162/14 165/181/11 145/161/11
f 139/155/18 158/174/28 138/154/28
f 132/148/9 151/167/10 131/147/10
f 147/163/16 166/182/14 146/162/14
f 140/156/17 159/175/18 139/155/18
f 133/149/13 152/168/9 132/148/9
f 148/164/20 167/183/16 147/163/16
f 141/157/21 160/176/17 140/156/17
f 134/150/15 153/169/13 133/149/13
f 129/145/23 168/184/20 148/164/20
f 11/27/7 10/26/7 9/25/7
f 9/25/7 28/44/7 27/43/7
f 27/43/7 26/42/7 25/41/7
f 25/41/7 24/40/7 23/39/7
f 23/39/7 22/38/7 21/37/7
f 21/37/7 20/36/7 19/35/7
f 19/35/7 18/34/7 17/33/7
f 17/33/7 16/32/7 15/31/7
f 15/31/7 14/30/7 13/29/7
f 13/29/7 12/28/7 11/27/7
f 11/27/7 9/25/7 27/43/7
f 27/43/7 25/41/7 23/39/7
f 23/39/7 21/37/7 19/35/7
f 19/35/7 17/33/7 15/31/7
f 15/31/7 13/29/7 11/27/7
f 11/27/7 27/43/7 23/39/7
f 23/39/7 19/35/7 15/31/7
f 30/46/8 29/45/8 31/47/8
f 31/47/8 32/48/8 33/49/8
f 33/49/8 34/50/8 35/51/8
f 35/51/8 36/52/8 37/53/8
f 37/53/8 38/54/8 39/55/8
f 39/55/8 40/56/8 41/57/8
f 41/57/8 42/58/8 43/59/8
f 43/59/8 44/60/8 45/61/8
f 45/61/8 46/62/8 47/63/8
f 47/63/8 48/64/8 30/46/8
f 30/46/8 31/47/8 33/49/8
f 33/49/8 35/51/8 37/53/8
f 37/53/8 39/55/8 41/57/8
f 41/57/8 43/59/8 45/61/8
f 45/61/8 47/63/8 30/46/8
f 30/46/8 33/49/8 37/53/8
f 37/53/8 41/57/8 45/61/8
f 22/38/9 42/58/9 41/57/10
f 15/31/11 35/51/11 34/50/12
f 23/39/13 43/59/13 42/58/9
f 16/32/14 36/52/14 35/51/11
f 24/40/15 44/60/15 43/59/13
f 17/33/16 37/53/16 36/52/14
f 10/26/17 29/45/17 30/46/18
f 25/41/19 45/61/19 44/60/15
f 18/34/20 38/54/20 37/53/16
f 11/27/21 31/47/21 29/45/17
f 26/42/22 46/62/22 45/61/19
f 19/35/23 39/55/23 38/54/20
f 12/28/24 32/48/24 31/47/21
f 27/43/25 47/63/25 46/62/22
f 20/36/26 40/56/26 39/55/23
f 13/29/27 33/49/27 32/48/24
f 28/44/28 48/64/28 47/63/25
f 21/37/10 41/57/10 40/56/26
f 14/30/12 34/50/12 33/49/27
f 9/25/18 30/46/18 48/64/28
f 49/65/7 50/66/7 51/67/7
f 51/67/7 52/68/7 53/69/7
f 53/69/7 54/70/7 55/71/7
f 55/71/7 56/72/7 57/73/7
f 57/73/7 58/74/7 59/75/7
f 59/75/7 60/76/7 61/77/7
f 61/77/7 62/78/7 63/79/7
f 63/79/7 64/80/7 65/81/7
f 65/81/7 66/82/7 67/83/7
f 67/83/7 68/84/7 49/65/7
f 49/65/7 51/67/7 53/69/7
f 53/69/7 55/71/7 57/73/7
f 57/73/7 59/75/7 61/77/7
f 61/77/7 63/79/7 65/81/7
f 65/81/7 67/83/7 49/65/7
f 49/65/7 53/69/7 57/73/7
f 57/73/7 61/77/7 65/81/7
f 71/87/8 69/85/8 70/86/8
f 70/86/8 88/104/8 87/103/8
f 87/103/8 86/102/8 85/101/8
f 85/101/8 84/100/8 83/99/8
f 83/99/8 82/98/8 81/97/8
f 81/97/8 80/96/8 79/95/8
f 79/95/8 78/94/8 77/93/8
f 77/93/8 76/92/8 75/91/8
f 75/91/8 74/90/8 73/89/8
f 73/89/8 72/88/8 71/87/8
f 71/87/8 70/86/8 87/103/8
f 87/103/8 85/101/8 83/99/8
f 83/99/8 81/97/8 79/95/8
f 79/95/8 77/93/8 75/91/8
f 75/91/8 73/89/8 71/87/8
f 71/87/8 87/103/8 83/99/8
f 83/99/8 79/95/8 75/91/8
f 81/97/16 82/98/14 62/78/14
f 74/90/15 75/91/13 55/71/13
f 82/98/14 83/99/11 63/79/11
f 75/91/13 76/92/9 56/72/9
f 83/99/11 84/100/12 64/80/12
f 76/92/9 77/93/10 57/73/10
f 70/86/18 69/85/28 50/66/28
f 84/100/12 85/101/27 65/81/27
f 77/93/10 78/94/26 58/74/26
f 69/85/28 71/87/25 51/67/25
f 85/101/27 86/102/24 66/82/24
f 78/94/26 79/95/23 59/75/23
f 71/87/25 72/88/22 52/68/22
f 86/102/24 87/103/21 67/83/21
f 79/95/23 80/96/20 60/76/20
f 72/88/22 73/89/19 53/69/19
f 87/103/21 88/104/17 68/84/17
f 80/96/20 81/97/16 61/77/16
f 73/89/19 74/90/15 54/70/15
f 88/104/17 70/86/18 49/65/18
f 89/105/7 90/106/7 91/107/7
f 91/107/7 92/108/7 93/109/7
f 93/109/7 94/110/7 95/111/7
f 95/111/7 96/112/7 97/113/7
f 97/113/7 98/114/7 99/115/7
f 99/115/7 100/116/7 101/117/7
f 101/117/7 102/118/7 103/119/7
f 103/119/7 104/120/7 105/121/7
f 105/121/7 106/122/7 107/123/7
f 107/123/7 108/124/7 89/105/7
f 89/105/7 91/107/7 93/109/7
f 93/109/7 95/111/7 97/113/7
f 97/113/7 99/115/7 101/117/7
f 101/117/7 103/119/7 105/121/7
f 105/121/7 107/123/7 89/105/7
f 89/105/7 93/109/7 97/113/7
f 97/113/7 101/117/7 105/121/7
f 111/127/8 109/125/8 110/126/8
f 110/126/8 128/144/8 127/143/8
f 127/143/8 126/142/8 125/141/8
f 125/141/8 124/140/8 123/139/8
f 123/139/8 122/138/8 121/137/8
f 121/137/8 120/136/8 119/135/8
f 119/135/8 118/134/8 117/133/8
f 117/133/8 116/132/8 115/131/8
f 115/131/8 114/130/8 113/129/8
f 113/129/8 112/128/8 111/127/8
f 111/127/8 110/126/8 127/143/8
f 127/143/8 125/141/8 123/139/8
f 123/139/8 121/137/8 119/135/8
f 119/135/8 117/133/8 115/131/8
f 115/131/8 113/129/8 111/127/8
f 111/127/8 127/143/8 123/139/8
f 123/139/8 119/135/8 115/131/8
f 121/137/25 122/138/22 102/118/22
f 94/110/12 114/130/12 115/131/27
f 122/138/22 123/139/19 103/119/19
f 115/131/27 116/132/24 96/112/24
f 123/139/19 124/140/15 104/120/15
f 116/132/24 117/133/21 97/113/21
f 110/126/23 109/125/20 90/106/20
f 124/140/15 125/141/13 105/121/13
f 117/133/21 118/134/17 98/114/17
f 109/125/20 111/127/16 91/107/16
f 125/141/13 126/142/9 106/122/9
f 118/134/17 119/135/18 99/115/18
f 111/127/16 112/128/14 92/108/14
f 126/142/9 127/143/10 107/123/10
f 119/135/18 120/136/28 100/116/28
f 112/128/14 113/129/11 93/109/11
f 127/143/10 128/144/26 108/124/26
f 120/136/28 121/137/25 101/117/25
f 93/109/11 113/129/11 114/130/12
f 128/144/26 110/126/23 89/105/23
f 131/147/7 130/146/7 129/145/7
f 129/145/7 148/164/7 147/163/7
f 147/163/7 146/162/7 145/161/7
f 145/161/7 144/160/7 143/159/7
f 143/159/7 142/158/7 141/157/7
f 141/157/7 140/156/7 139/155/7
f 139/155/7 138/154/7 137/153/7
f 137/153/7 136/152/7 135/151/7
f 135/151/7 134/150/7 133/149/7
f 133/149/7 132/148/7 131/147/7
f 131/147/7 129/145/7 147/163/7
f 147/163/7 145/161/7 143/159/7
f 143/159/7 141/157/7 139/155/7
f 139/155/7 137/153/7 135/151/7
f 135/151/7 133/149/7 131/147/7
f 131/147/7 147/163/7 143/159/7
f 143/159/7 139/155/7 135/151/7
f 150/166/8 149/165/8 151/167/8
f 151/167/8 152/168/8 153/169/8
f 153/169/8 154/170/8 155/171/8
f 155/171/8 156/172/8 157/173/8
f 157/173/8 158/174/8 159/175/8
f 159/175/8 160/176/8 161/177/8
f 161/177/8 162/178/8 163/179/8
f 163/179/8 164/180/8 165/181/8
f 165/181/8 166/182/8 167/183/8
f 167/183/8 168/184/8 150/166/8
f 150/166/8 151/167/8 153/169/8
f 153/169/8 155/171/8 157/173/8
f 157/173/8 159/175/8 161/177/8
f 161/177/8 163/179/8 165/181/8
f 165/181/8 167/183/8 150/166/8
f 150/166/8 153/169/8 157/173/8
f 157/173/8 161/177/8 165/181/8
f 142/158/24 162/178/24 161/177/21
f 134/150/15 135/151/19 155/171/19
f 143/159/27 163/179/27 162/178/24
f 136/152/22 156/172/22 155/171/19
f 144/160/12 164/180/12 163/179/27
f 137/153/25 157/173/25 156/172/22
f 130/146/26 149/165/26 150/166/23
f 145/161/11 165/181/11 164/180/12
f 138/154/28 158/174/28 157/173/25
f 131/147/10 151/167/10 149/165/26
f 146/162/14 166/182/14 165/181/11
f 139/155/18 159/175/18 158/174/28
f 132/148/9 152/168/9 151/167/10
f 147/163/16 167/183/16 166/182/14
f 140/156/17 160/176/17 159/175/18
f 133/149/13 153/169/13 152/168/9
f 148/164/20 168/184/20 167/183/16
f 141/157/21 161/177/21 160/176/17
f 134/150/15 154/170/15 153/169/13
f 129/145/23 150/166/23 168/184/20
